<?xml version="1.0" encoding="utf-8"?>
<!-- Generator: Adobe Illustrator 16.0.0, SVG Export Plug-In . SVG Version: 6.00 Build 0)  -->
<!DOCTYPE svg PUBLIC "-//W3C//DTD SVG 1.1//EN" "http://www.w3.org/Graphics/SVG/1.1/DTD/svg11.dtd">
<svg version="1.1" id="Layer_1" xmlns="http://www.w3.org/2000/svg" xmlns:xlink="http://www.w3.org/1999/xlink" x="0px" y="0px"
	 width="197px" height="46px" viewBox="0 0 197 46" enable-background="new 0 0 197 46" xml:space="preserve">
<g id="HackerRank">
	<g>
		<g id="Hexagon_1_">
			<g>
				
					<linearGradient id="SVGID_1_" gradientUnits="userSpaceOnUse" x1="297.1206" y1="-207.687" x2="297.1206" y2="-187.5" gradientTransform="matrix(1 0 0 -1 -270 -187)">
					<stop  offset="0" style="stop-color:#25A559"/>
					<stop  offset="1" style="stop-color:#30CE68"/>
				</linearGradient>
				<path fill="url(#SVGID_1_)" d="M21.052,0.5c-1.081,0-4.527,1.634-8.228,3.681l28.593,16.506
					c-0.082-4.222-0.392-8.009-0.931-8.937c-0.455-0.784-2.745-2.445-5.613-4.256L27.227,3.08C24.363,1.578,21.929,0.5,21.052,0.5z"
					/>
				
					<linearGradient id="SVGID_2_" gradientUnits="userSpaceOnUse" x1="293.1655" y1="-216.9829" x2="293.1655" y2="-191.1812" gradientTransform="matrix(1 0 0 -1 -270 -187)">
					<stop  offset="0" style="stop-color:#25A559"/>
					<stop  offset="1" style="stop-color:#30CE68"/>
				</linearGradient>
				<path fill="url(#SVGID_2_)" d="M4.89,9.017l36.321,20.966c0.2-2.648,0.269-6.096,0.206-9.296L12.824,4.181
					C10.02,5.732,7.071,7.518,4.89,9.017z"/>
				
					<linearGradient id="SVGID_3_" gradientUnits="userSpaceOnUse" x1="291.0503" y1="-224.0376" x2="291.0503" y2="-196.0171" gradientTransform="matrix(1 0 0 -1 -270 -187)">
					<stop  offset="0" style="stop-color:#25A559"/>
					<stop  offset="1" style="stop-color:#30CE68"/>
				</linearGradient>
				<path fill="url(#SVGID_3_)" d="M4.89,9.017c-1.713,1.176-2.953,2.172-3.273,2.733c-0.328,0.574-0.57,2.218-0.729,4.371
					l36.235,20.917c1.758-1.201,3.037-2.221,3.364-2.788c0.324-0.562,0.565-2.163,0.724-4.267L4.89,9.017z"/>
				
					<linearGradient id="SVGID_4_" gradientUnits="userSpaceOnUse" x1="288.9009" y1="-228.9546" x2="288.9009" y2="-203.1055" gradientTransform="matrix(1 0 0 -1 -270 -187)">
					<stop  offset="0" style="stop-color:#25A559"/>
					<stop  offset="1" style="stop-color:#30CE68"/>
				</linearGradient>
				<path fill="url(#SVGID_4_)" d="M37.136,37.029L0.889,16.105c-0.201,2.718-0.267,6.25-0.196,9.495l28.331,16.354
					C31.871,40.389,34.895,38.562,37.136,37.029z"/>
				
					<linearGradient id="SVGID_5_" gradientUnits="userSpaceOnUse" x1="284.8589" y1="-232.4995" x2="284.8589" y2="-212.6001" gradientTransform="matrix(1 0 0 -1 -270 -187)">
					<stop  offset="0" style="stop-color:#25A559"/>
					<stop  offset="1" style="stop-color:#30CE68"/>
				</linearGradient>
				<path fill="url(#SVGID_5_)" d="M0.693,25.601c0.09,4.1,0.397,7.733,0.923,8.649C2.889,36.466,18.51,45.5,21.052,45.5
					c1.056,0,4.369-1.562,7.973-3.545L0.693,25.601z"/>
			</g>
		</g>
		<g id="H_1_">
			
				<image overflow="visible" opacity="0.1" enable-background="new    " width="316" height="426" xlink:href="615437081EF45CAC.png"  transform="matrix(0.0738 0 0 0.0738 9.4224 7.5083)">
			</image>
			<g>
				<path fill="#FFFFFF" d="M24.872,24.761v7.788h-1.314c-0.267,0-0.483,0.217-0.483,0.483c0,0.175,0.093,0.327,0.231,0.412
					l2.955,2.832c0.088,0.115,0.264,0.203,0.42,0.203c0.16,0,0.301-0.083,0.389-0.203l3.147-2.832
					c0.138-0.085,0.23-0.238,0.23-0.412c0-0.267-0.217-0.483-0.483-0.483h-1.319L28.634,13.73c0-0.267-0.212-0.483-0.479-0.483
					h-2.798c-0.267,0-0.486,0.217-0.486,0.483v7.265l-7.639-0.001v-7.543h1.314c0.267,0,0.483-0.217,0.483-0.483
					c0-0.175-0.093-0.328-0.231-0.413l-2.955-2.832c-0.088-0.115-0.264-0.203-0.42-0.203c-0.16,0-0.301,0.083-0.389,0.203
					l-3.148,2.833c-0.138,0.085-0.23,0.237-0.23,0.412c0,0.267,0.216,0.483,0.483,0.483h1.319l0.012,18.818
					c0,0.267,0.211,0.483,0.478,0.483h2.798c0.267,0,0.486-0.217,0.486-0.483v-7.509H24.872z"/>
			</g>
		</g>
		<path fill="#39424E" d="M151.305,31.02c-1.563-2.557-3.135-5.108-4.701-7.664c-0.135-0.219-0.249-0.449-0.396-0.718
			c0.35-0.105,0.608-0.176,0.862-0.262c2.355-0.792,3.807-2.734,3.882-5.188c0.088-2.907-1.435-4.942-4.264-5.646
			c-0.64-0.159-1.304-0.285-1.96-0.302c-2.111-0.053-4.226-0.051-6.338-0.062c-1.229-0.006-1.251,0.02-1.251,1.216
			c-0.001,6.242-0.001,12.484,0,18.726c0,0.221,0.003,0.442,0.022,0.662c0.027,0.307,0.187,0.514,0.512,0.519
			c0.663,0.011,1.327,0.009,1.99,0.004c0.323-0.002,0.498-0.194,0.541-0.495c0.028-0.193,0.018-0.393,0.018-0.589
			c0.001-2.457,0.001-4.915,0.001-7.372c0-0.268,0-0.535,0-0.948c0.739,0,1.373,0.021,2.005-0.007
			c0.421-0.019,0.677,0.128,0.885,0.5c0.526,0.943,1.092,1.865,1.643,2.796c1.089,1.839,2.185,3.674,3.262,5.52
			c0.229,0.392,0.477,0.648,0.979,0.611c0.537-0.04,1.081,0.006,1.621-0.014c0.349-0.014,0.778,0.148,0.99-0.283
			C151.807,31.619,151.492,31.323,151.305,31.02z M144.269,20.059c-1.242,0.099-2.498,0.039-3.748,0.041
			c-0.067,0-0.135-0.04-0.248-0.075c0-1.975,0-3.95,0-5.927c0.033-0.03,0.069-0.09,0.105-0.091c1.615-0.037,3.233-0.15,4.839,0.132
			c0.24,0.042,0.48,0.102,0.711,0.182c1.674,0.578,2.433,2.303,1.733,3.933c-0.242,0.566-0.646,1.018-1.21,1.225
			C145.746,19.738,145.009,20,144.269,20.059z M99.3,26.267c-0.011,0.237-0.03,0.474-0.03,0.711c-0.003,1.5,0.003,3-0.004,4.5
			c-0.004,0.724-0.1,0.818-0.798,0.831c-0.491,0.009-0.984,0.015-1.475-0.004c-0.51-0.02-0.631-0.155-0.662-0.675
			c-0.009-0.147-0.002-0.295-0.002-0.442c0-6.737,0-13.475,0-20.212c0-0.172-0.007-0.345,0.004-0.516
			c0.03-0.463,0.169-0.634,0.616-0.654c0.564-0.026,1.132-0.025,1.696,0c0.46,0.02,0.589,0.173,0.619,0.644
			c0.013,0.196,0.005,0.394,0.005,0.59c0,3.762,0,7.524,0.002,11.286c0,0.261,0.021,0.521,0.039,0.924
			c0.264-0.22,0.432-0.341,0.579-0.484c1.48-1.44,2.965-2.876,4.431-4.331c0.302-0.299,0.611-0.447,1.039-0.431
			c0.713,0.026,1.427,0.004,2.14,0.009c0.29,0.001,0.616-0.047,0.739,0.325c0.113,0.342-0.104,0.549-0.33,0.753
			c-1.786,1.617-3.571,3.235-5.355,4.854c-0.217,0.197-0.428,0.399-0.675,0.631c0.151,0.173,0.268,0.325,0.402,0.457
			c2.038,1.996,4.077,3.989,6.117,5.983c0.123,0.12,0.282,0.222,0.358,0.366c0.095,0.18,0.209,0.431,0.148,0.585
			c-0.061,0.155-0.315,0.296-0.504,0.325c-0.337,0.053-0.687,0.025-1.03,0.018c-0.661-0.016-1.392,0.127-1.963-0.11
			c-0.545-0.227-0.932-0.846-1.377-1.303c-1.32-1.357-2.634-2.72-3.951-4.079c-0.202-0.209-0.409-0.411-0.614-0.616
			C99.41,26.223,99.355,26.245,99.3,26.267z M186.723,26.287c0,0.465,0,0.93,0,1.395c0,1.277,0.008,2.556-0.003,3.834
			c-0.005,0.651-0.137,0.777-0.774,0.792c-0.467,0.011-0.935,0.011-1.401,0c-0.646-0.015-0.752-0.127-0.78-0.788
			c-0.006-0.147-0.003-0.295-0.003-0.442c0-6.686,0-13.371,0.001-20.057c0-1.21,0.015-1.224,1.243-1.224
			c0.369,0,0.738-0.017,1.105,0.009c0.407,0.028,0.565,0.195,0.605,0.597c0.019,0.195,0.007,0.393,0.007,0.589
			c0,3.761,0,7.521,0,11.282c0,0.266,0,0.532,0,0.993c0.32-0.275,0.521-0.428,0.7-0.603c1.408-1.372,2.823-2.738,4.213-4.128
			c0.372-0.374,0.75-0.575,1.293-0.537c0.636,0.045,1.277,0.007,1.916,0.012c0.312,0.003,0.67-0.072,0.826,0.316
			c0.154,0.387-0.145,0.588-0.377,0.798c-1.782,1.621-3.568,3.237-5.352,4.855c-0.198,0.18-0.39,0.366-0.643,0.604
			c0.188,0.203,0.342,0.383,0.51,0.547c2.02,1.978,4.041,3.953,6.062,5.929c0.105,0.103,0.247,0.189,0.306,0.314
			c0.086,0.187,0.199,0.433,0.14,0.593c-0.058,0.153-0.319,0.316-0.496,0.323c-0.908,0.031-1.82,0.046-2.727-0.008
			c-0.248-0.015-0.521-0.248-0.715-0.446c-1.634-1.667-3.252-3.35-4.877-5.026c-0.199-0.206-0.407-0.402-0.611-0.604
			C186.835,26.234,186.78,26.261,186.723,26.287z M123.625,24.014c-0.25-3.675-2.801-6.136-6.171-6.335
			c-2.93-0.173-5.223,0.916-6.795,3.414c-0.909,1.445-1.203,3.058-1.045,4.736c0.281,2.992,1.748,5.173,4.572,6.32
			c1.624,0.659,3.31,0.646,4.991,0.203c1.502-0.396,2.702-1.261,3.688-2.44c0.436-0.521,0.415-0.739-0.093-1.16
			c-0.228-0.188-0.463-0.364-0.695-0.546c-0.891-0.696-0.879-0.685-1.619,0.154c-1.251,1.418-2.819,1.959-4.646,1.457
			c-1.744-0.48-2.76-1.691-3.153-3.598c0.379-0.019,0.666-0.044,0.952-0.044c2.924-0.003,5.848-0.002,8.771-0.002
			c0.196,0,0.394,0.008,0.589-0.008c0.516-0.041,0.643-0.148,0.67-0.68C123.667,24.996,123.658,24.502,123.625,24.014z
			 M112.769,23.588c0.067-0.263,0.096-0.477,0.176-0.668c1.01-2.392,3.539-3.188,5.688-2.247c1.188,0.52,1.764,1.551,1.961,2.915
			C117.941,23.588,115.401,23.588,112.769,23.588z M78.43,31.418c-0.071-0.979-0.142-1.96-0.155-2.94
			c-0.025-1.844,0.015-3.688-0.015-5.532c-0.044-2.736-1.486-4.567-4.094-5.115c-2.259-0.475-4.398-0.087-6.351,1.181
			c-0.246,0.16-0.478,0.348-0.69,0.551c-0.375,0.358-0.387,0.547-0.083,0.954c0.162,0.216,0.346,0.416,0.52,0.623
			c0.744,0.88,0.736,0.87,1.68,0.179c1.355-0.993,2.869-1.265,4.476-0.821c1.173,0.324,1.788,1.383,1.565,2.599
			c-0.818,0.036-1.651,0.063-2.483,0.109c-1.306,0.072-2.595,0.25-3.822,0.728c-1.159,0.45-2.164,1.127-2.611,2.34
			c-0.919,2.492-0.005,5.089,2.706,6.04c1.168,0.409,2.367,0.403,3.568,0.208c1.069-0.174,1.99-0.676,2.903-1.492
			c0.069,0.301,0.109,0.46,0.143,0.619c0.118,0.559,0.212,0.646,0.783,0.66c0.393,0.011,0.787,0.009,1.18,0.001
			C78.384,32.295,78.484,32.157,78.43,31.418z M70.38,29.839c-0.638-0.223-1.114-0.604-1.278-1.302
			c-0.189-0.805,0.007-1.397,0.697-1.854c0.323-0.215,0.685-0.396,1.054-0.511c1.444-0.446,2.932-0.516,4.473-0.489
			C75.715,28.66,73.111,30.792,70.38,29.839z M165.41,31.487c-0.083-0.904-0.169-1.812-0.183-2.719
			c-0.03-2.09,0.02-4.181-0.034-6.27c-0.056-2.147-1.32-3.781-3.346-4.481c-1.314-0.454-2.658-0.458-4.005-0.228
			c-1.304,0.223-2.497,0.73-3.527,1.578c-0.628,0.516-0.645,0.721-0.144,1.334c0.203,0.248,0.407,0.494,0.618,0.733
			c0.463,0.525,0.622,0.546,1.153,0.099c1.091-0.917,2.345-1.279,3.76-1.22c1.356,0.057,2.66,0.741,2.64,2.734
			c-0.272,0.028-0.509,0.063-0.748,0.076c-0.662,0.034-1.327,0.044-1.989,0.09c-1.229,0.084-2.443,0.26-3.604,0.699
			c-1.09,0.413-2.015,1.043-2.556,2.108c-1.161,2.287-0.219,5.114,2.147,6.091c2.251,0.928,4.469,0.783,6.493-0.723
			c0.129-0.096,0.272-0.171,0.448-0.28c0.053,0.225,0.089,0.391,0.131,0.555c0.149,0.583,0.201,0.63,0.798,0.645
			c0.418,0.01,0.836,0.011,1.254-0.001C165.348,32.289,165.467,32.114,165.41,31.487z M159.361,29.963
			c-0.642,0.079-1.328,0.01-1.963-0.132c-0.776-0.173-1.27-0.702-1.362-1.546c-0.093-0.851,0.299-1.414,1.02-1.785
			c0.282-0.146,0.577-0.281,0.881-0.368c1.407-0.397,2.85-0.468,4.335-0.464C162.655,27.369,161.573,29.689,159.361,29.963z
			 M171.181,19.211c0.299-0.209,0.495-0.352,0.695-0.486c1.808-1.208,3.753-1.401,5.767-0.671c1.729,0.626,2.608,2.015,3.014,3.73
			c0.128,0.544,0.178,1.118,0.182,1.679c0.018,2.629,0.008,5.258,0.007,7.886c0,0.172,0.046,0.372-0.025,0.509
			c-0.09,0.173-0.271,0.408-0.426,0.419c-0.66,0.048-1.325,0.032-1.988,0.02c-0.281-0.006-0.451-0.18-0.475-0.466
			c-0.016-0.195-0.012-0.393-0.012-0.589c-0.001-2.113,0.01-4.226-0.007-6.339c-0.005-0.661-0.047-1.326-0.135-1.981
			c-0.147-1.103-0.571-2.066-1.732-2.43c-1.221-0.382-2.387-0.249-3.379,0.641c-0.725,0.651-1.09,1.509-1.256,2.445
			c-0.094,0.529-0.132,1.074-0.136,1.612c-0.016,2.063-0.004,4.127-0.008,6.19c-0.002,0.853-0.076,0.923-0.924,0.93
			c-0.418,0.004-0.836,0.009-1.253-0.002c-0.616-0.016-0.734-0.134-0.76-0.727c-0.008-0.196-0.01-0.389-0.01-0.585
			c0-0.43,0.005-7.031-0.008-10.544c-0.002-0.564-0.075-1.127-0.093-1.692c-0.019-0.602,0.11-0.73,0.723-0.747
			c0.442-0.012,0.885-0.009,1.326-0.001c0.681,0.011,0.741,0.069,0.836,0.741C171.122,18.87,171.143,18.986,171.181,19.211z
			 M88.413,32.697c-2.169-0.043-4.069-0.693-5.595-2.271c-1.04-1.075-1.66-2.373-1.887-3.841c-0.277-1.79-0.108-3.529,0.77-5.152
			c1.161-2.147,3-3.315,5.376-3.69c1.52-0.24,2.984-0.045,4.391,0.582c0.845,0.376,1.571,0.912,2.155,1.629
			c0.373,0.458,0.346,0.688-0.114,1.042c-0.409,0.314-0.833,0.608-1.258,0.902c-0.307,0.212-0.601,0.2-0.839-0.114
			c-1.05-1.385-2.477-1.706-4.079-1.356c-1.655,0.361-2.713,1.437-3.204,3.038c-0.409,1.336-0.342,2.667,0.221,3.96
			c1.314,3.02,5.462,3.317,7.126,1.223c0.422-0.53,0.556-0.512,1.103-0.125c0.32,0.228,0.635,0.464,0.946,0.704
			c0.565,0.438,0.6,0.685,0.135,1.201c-0.894,0.992-1.975,1.701-3.283,1.999C89.734,32.573,89.068,32.61,88.413,32.697z
			 M129.384,19.167c0.238-0.181,0.374-0.281,0.507-0.385c1.299-1.016,2.772-1.31,4.376-1.045c0.613,0.101,0.735,0.265,0.675,0.901
			c-0.039,0.415-0.103,0.828-0.164,1.241c-0.104,0.712-0.269,0.802-0.979,0.722c-0.531-0.06-1.081-0.1-1.605-0.027
			c-0.964,0.134-1.651,0.71-2.101,1.568c-0.43,0.822-0.615,1.703-0.615,2.626c0.001,2.138,0,4.275-0.001,6.412
			c0,0.172,0.011,0.346-0.005,0.516c-0.039,0.425-0.178,0.588-0.585,0.604c-0.589,0.022-1.18,0.023-1.769,0
			c-0.433-0.018-0.547-0.148-0.592-0.593c-0.021-0.219-0.011-0.441-0.011-0.662c-0.001-2.629-0.004-7.76-0.004-7.887
			c-0.007-1.399-0.046-2.799-0.079-4.198c-0.021-0.878,0.029-0.942,0.876-0.95c0.393-0.004,0.786-0.007,1.179,0.001
			c0.643,0.013,0.688,0.055,0.818,0.694C129.331,18.823,129.346,18.941,129.384,19.167z M50.088,22.871c0,0-0.002,8.724-0.002,8.92
			c0,0.346-0.228,0.513-0.583,0.515c-0.639,0.003-1.278,0.004-1.917-0.002c-0.358-0.003-0.566-0.2-0.566-0.551
			c0-0.188,0-19.394,0-19.471c0-1.069,0.037-1.103,1.13-1.106c0.344-0.001,0.688-0.004,1.032,0.002
			c0.794,0.014,0.895,0.114,0.905,0.892c0.005,0.393,0.001,7.462,0.001,7.836h9.953c0-0.374-0.004-7.406,0.001-7.799
			c0.01-0.778,0.111-0.877,0.905-0.892c0.344-0.006,0.688-0.002,1.033-0.001c1.093,0.003,1.13,0.036,1.13,1.106
			c0,0.077,0,19.283,0,19.471c0,0.35-0.208,0.548-0.566,0.551c-0.639,0.005-1.278,0.005-1.917,0.002
			c-0.355-0.002-0.583-0.169-0.583-0.515c0-0.196-0.002-8.957-0.002-8.957H50.088z"/>
	</g>
</g>
</svg>
